<?xml version="1.0" encoding="UTF-8" standalone="no"?>
<svg
   width="600"
   height="300"
   viewBox="0 0 600 300"
   fill="none"
   version="1.1"
   id="svg41"
   sodipodi:docname="welcome.svg"
   xml:space="preserve"
   inkscape:version="1.2.2 (732a01da63, 2022-12-09)"
   xmlns:inkscape="http://www.inkscape.org/namespaces/inkscape"
   xmlns:sodipodi="http://sodipodi.sourceforge.net/DTD/sodipodi-0.dtd"
   xmlns="http://www.w3.org/2000/svg"
   xmlns:svg="http://www.w3.org/2000/svg"><sodipodi:namedview
     id="namedview43"
     pagecolor="#ffffff"
     bordercolor="#111111"
     borderopacity="1"
     inkscape:showpageshadow="0"
     inkscape:pageopacity="0"
     inkscape:pagecheckerboard="1"
     inkscape:deskcolor="#d1d1d1"
     showgrid="false"
     inkscape:zoom="2.095"
     inkscape:cx="273.74702"
     inkscape:cy="149.88067"
     inkscape:window-width="1920"
     inkscape:window-height="1027"
     inkscape:window-x="-8"
     inkscape:window-y="-8"
     inkscape:window-maximized="1"
     inkscape:current-layer="text187" /><g
     clip-path="url(#clip0_3_9)"
     id="g24"><path
       opacity="0.3"
       d="M174.819 37.1295C273.425 88.7293 382.64 63.4072 424.922 44.2961C469.797 25.5832 550.692 12.7629 515.271 111.185C470.994 234.212 320.214 302.893 252.004 299.907C183.794 296.92 130.678 236.695 90.4546 146.421C68.5186 97.1897 51.563 -27.3703 174.819 37.1295Z"
       fill="url(#paint0_radial_3_9)"
       id="path2" /><path
       d="M174.819 263.806C273.425 212.023 382.64 237.435 424.922 256.614C469.797 275.393 550.692 288.259 515.271 189.487C470.994 66.0219 320.214 -2.90292 252.004 0.0938056C183.794 3.09054 130.678 63.5307 90.4546 154.126C68.5186 203.532 51.563 328.535 174.819 263.806Z"
       fill="url(#paint1_radial_3_9)"
       id="path4" /><path
       d="M183.094 97H184.256L186.832 88.768L189.548 97H190.668L193.552 87.284H192.39L190.136 95.404L187.546 87.354H186.244L183.724 95.488L181.512 87.284H180.168L183.094 97ZM197.927 97.14C198.697 97.14 199.537 96.958 200.139 96.636L199.887 95.824C199.369 96.076 198.711 96.23 198.123 96.23C196.695 96.23 195.799 95.376 195.631 93.934H200.335C200.363 93.724 200.391 93.234 200.391 92.968C200.391 91.274 199.271 90.112 197.605 90.112C195.729 90.112 194.455 91.582 194.455 93.654C194.455 95.81 195.785 97.14 197.927 97.14ZM195.617 93.094C195.715 91.778 196.387 91.064 197.521 91.064C198.669 91.064 199.341 91.806 199.341 93.094H195.617ZM203.811 97.084C204.175 97.084 204.609 97 204.875 96.86L204.623 96.076C204.455 96.146 204.301 96.188 204.133 96.188C203.657 96.188 203.405 95.866 203.405 95.348V86.654H202.285V95.488C202.285 96.454 202.887 97.084 203.811 97.084ZM208.828 97.14C209.64 97.14 210.48 96.944 211.04 96.608L210.788 95.796C210.228 96.062 209.612 96.216 209.094 96.216C207.694 96.216 206.896 95.236 206.896 93.598C206.896 91.974 207.68 91.092 209.08 91.092C209.612 91.092 210.214 91.218 210.774 91.47L211.04 90.56C210.424 90.266 209.766 90.112 209.094 90.112C207.092 90.112 205.748 91.596 205.748 93.822C205.748 95.908 206.896 97.14 208.828 97.14ZM215.433 97.14C217.421 97.14 218.765 95.698 218.765 93.542C218.765 91.456 217.519 90.112 215.601 90.112C213.613 90.112 212.283 91.54 212.283 93.696C212.283 95.782 213.515 97.14 215.433 97.14ZM215.587 96.16C214.285 96.16 213.403 95.11 213.403 93.556C213.403 92.058 214.201 91.092 215.447 91.092C216.749 91.092 217.645 92.156 217.645 93.696C217.645 95.18 216.833 96.16 215.587 96.16ZM229.732 97H230.852V92.576C230.852 91.078 229.872 90.112 228.374 90.112C227.478 90.112 226.596 90.476 225.91 91.12C225.49 90.476 224.776 90.112 223.852 90.112C223.082 90.112 222.326 90.378 221.696 90.84L221.444 90.252H220.66V97H221.78V91.722C222.284 91.316 222.886 91.092 223.53 91.092C224.608 91.092 225.196 91.708 225.196 92.8V97H226.316V92.576C226.316 92.296 226.288 92.044 226.218 91.806C226.736 91.344 227.38 91.092 228.066 91.092C229.144 91.092 229.732 91.708 229.732 92.8V97ZM236.098 97.14C236.868 97.14 237.708 96.958 238.31 96.636L238.058 95.824C237.54 96.076 236.882 96.23 236.294 96.23C234.866 96.23 233.97 95.376 233.802 93.934H238.506C238.534 93.724 238.562 93.234 238.562 92.968C238.562 91.274 237.442 90.112 235.776 90.112C233.9 90.112 232.626 91.582 232.626 93.654C232.626 95.81 233.956 97.14 236.098 97.14ZM233.788 93.094C233.886 91.778 234.558 91.064 235.692 91.064C236.84 91.064 237.512 91.806 237.512 93.094H233.788ZM245.843 97.07C246.305 97.07 246.767 96.958 247.089 96.818L246.837 96.006C246.627 96.104 246.319 96.16 246.081 96.16C245.381 96.16 244.919 95.712 244.919 95.04V91.19H246.767V90.252H244.919V88.278H243.799V90.252H242.889V91.19H243.799V95.194C243.799 96.314 244.611 97.07 245.843 97.07ZM251.308 97.14C253.296 97.14 254.64 95.698 254.64 93.542C254.64 91.456 253.394 90.112 251.476 90.112C249.488 90.112 248.158 91.54 248.158 93.696C248.158 95.782 249.39 97.14 251.308 97.14ZM251.462 96.16C250.16 96.16 249.278 95.11 249.278 93.556C249.278 92.058 250.076 91.092 251.322 91.092C252.624 91.092 253.52 92.156 253.52 93.696C253.52 95.18 252.708 96.16 251.462 96.16Z"
       fill="white"
       id="path22" /></g><defs
     id="defs39"><radialGradient
       id="paint0_radial_3_9"
       cx="0"
       cy="0"
       r="1"
       gradientUnits="userSpaceOnUse"
       gradientTransform="translate(262.876 191.903) rotate(-65.448) scale(208.794 304.094)"><stop
         stop-color="#4F4A3E"
         id="stop26" /><stop
         offset="1"
         stop-color="#3C3B37"
         id="stop28" /></radialGradient><radialGradient
       id="paint1_radial_3_9"
       cx="0"
       cy="0"
       r="1"
       gradientUnits="userSpaceOnUse"
       gradientTransform="translate(262.876 108.482) rotate(65.5248) scale(209.409 304.28)"><stop
         stop-color="#4F4A3E"
         id="stop31" /><stop
         offset="1"
         stop-color="#3C3B37"
         id="stop33" /></radialGradient><clipPath
       id="clip0_3_9"><rect
         width="600"
         height="300"
         fill="white"
         id="rect36" /></clipPath><clipPath
       id="_clipPath_6QuGNGlomH4FEiIMCoz970PSjL5rDUZ6"><rect
         x="663.148"
         y="396.288"
         width="215.223"
         height="63.449"
         id="rect2" /></clipPath></defs><g
     style="isolation:isolate;fill:#ffffff"
     id="g310"
     transform="matrix(1.2806723,0,0,1.2806723,-687.09033,-398.14375)"><g
       aria-label="YoyoOS"
       id="text187"
       style="font-size:89.1777px;font-family:'Krinkes Regular PERSONAL USE';-inkscape-font-specification:'Krinkes Regular PERSONAL USE, Normal';font-variant-ligatures:discretionary-ligatures;stroke:#000000;stroke-width:1.11382;stroke-opacity:0"><path
         d="m 672.22623,396.84489 q 5.08313,0 7.84764,2.85369 2.85369,2.76451 3.65629,8.73941 l 1.24849,9.00695 q 3.38875,-2.67533 5.70737,-6.06408 2.4078,-3.38876 3.21039,-6.24244 0.8026,-2.58616 0,-3.65629 -0.80259,-1.07013 -3.65628,-0.35671 l 1.33766,-3.56711 q 0.71343,-0.0892 1.51603,-0.26753 0.71342,-0.17835 1.51602,-0.26753 0.8026,-0.0892 1.78355,-0.0892 2.05109,0 3.74546,0.62424 1.69438,0.62425 2.67533,1.78356 0.98096,1.15931 1.07014,2.85368 0.17835,1.6052 -0.71342,3.65629 -2.05109,4.54806 -6.68833,8.56106 -4.54806,3.92382 -10.25544,6.59915 l -6.06408,14.8035 q -0.71342,1.87273 -0.17836,3.03204 0.53507,1.07013 2.58616,1.07013 h 0.8026 l -1.78356,3.83464 q -0.71342,0.17836 -1.51602,0.35671 -0.71342,0.17836 -1.6052,0.26753 -0.8026,0.0892 -1.69437,0.0892 -5.17231,0 -6.4208,-2.76451 -1.24848,-2.85368 1.15931,-8.82859 l 4.28053,-10.61214 -2.31862,-16.85459 q -0.17835,-1.78355 -1.33766,-2.85369 -1.15931,-1.15931 -3.2104,-1.15931 h -0.89178 l -0.35671,-3.83464 q 0.62425,-0.17835 1.33767,-0.35671 0.62424,-0.17835 1.42684,-0.26753 0.8026,-0.0892 1.78355,-0.0892 z"
         id="path398"
         style="fill:#ffffff" /><path
         d="m 719.13375,408.7947 q 3.2104,0 5.35066,1.42685 2.22944,1.33766 3.2104,3.74546 0.98095,2.4078 0.8026,5.61819 -0.17836,3.2104 -1.6052,6.86669 -1.6052,4.19135 -3.92382,7.49092 -2.31862,3.2104 -5.17231,5.52902 -2.76451,2.31862 -5.9749,3.56711 -3.12122,1.15931 -6.50997,1.15931 -3.29958,0 -5.43984,-1.33767 -2.14027,-1.42684 -3.12122,-3.83464 -0.98096,-2.4078 -0.71343,-5.61819 0.17836,-3.29958 1.6052,-6.95586 3.38876,-8.47188 8.91777,-13.01995 5.6182,-4.63724 12.57406,-4.63724 z m -2.22944,17.74637 q 1.07013,-2.76451 1.69437,-5.26149 0.71342,-2.49697 0.89178,-4.36971 0.17835,-1.96191 -0.17836,-3.12122 -0.35671,-1.15931 -1.42684,-1.15931 -1.07013,0 -2.4078,1.15931 -1.33766,1.15931 -2.76451,3.12122 -1.33766,1.87274 -2.67533,4.36971 -1.33766,2.49698 -2.40779,5.26149 -1.07014,2.67533 -1.78356,5.1723 -0.71342,2.4078 -0.89178,4.28053 -0.0892,1.87273 0.35672,3.03204 0.44588,1.07013 1.51602,1.07013 1.07013,0 2.31862,-1.07013 1.33766,-1.15931 2.67533,-3.03204 1.33766,-1.87273 2.67533,-4.28053 1.33766,-2.49697 2.4078,-5.1723 z"
         id="path400" /><path
         d="m 765.6845,409.50813 q -0.71342,1.69437 -1.69437,3.92381 -0.89178,2.22945 -1.96191,4.8156 -0.98096,2.49697 -2.05109,5.26148 -1.07013,2.67533 -2.14026,5.26149 -2.4078,6.06408 -5.17231,12.66323 -3.38875,8.65024 -9.00695,13.1983 -5.61819,4.54806 -12.48487,4.54806 -2.85369,0 -4.54807,-1.33766 -1.78355,-1.33767 -2.40779,-3.38876 -0.62425,-2.05108 -0.17836,-4.54806 0.35671,-2.49697 1.69438,-4.90477 1.24848,-2.05109 2.85368,-3.56711 -0.8026,-1.51602 -0.71342,-3.56711 0,-2.14026 1.15931,-4.99395 0.44589,-1.07013 1.33767,-3.2104 0.98095,-2.22944 1.96191,-4.63724 1.07013,-2.40779 1.87273,-4.54806 0.89177,-2.14026 1.24849,-3.12122 0.80259,-1.78355 0.26753,-2.85368 -0.53507,-1.15931 -2.58615,-1.15931 h -0.89178 l 1.87273,-3.83464 q 0.71342,-0.17836 1.51602,-0.35672 0.71342,-0.17835 1.51602,-0.26753 0.8026,-0.0892 1.78356,-0.0892 5.08312,0 6.33161,2.85369 1.33767,2.76451 -1.15931,8.65024 -0.53506,1.33766 -1.51602,3.65628 -0.89178,2.31862 -1.87273,4.63724 -1.07013,2.67533 -2.22944,5.52902 -0.53507,1.51602 0,2.31862 0.53506,0.71342 1.6052,0.8026 1.15931,0 2.67533,-0.71342 1.51602,-0.71342 2.85368,-2.22945 l 10.16626,-24.79139 z m -31.12301,34.69012 q -1.96191,0 -3.38875,-0.53507 -1.15931,0.98096 -2.22945,2.58616 -1.07013,1.60519 -1.60519,4.19135 -0.53507,2.22944 0.62424,3.47793 1.07013,1.33766 2.85369,1.33766 1.69437,0 3.38875,-1.24848 1.78355,-1.24849 3.29957,-3.2104 1.6052,-1.96191 2.94287,-4.45889 1.33766,-2.40779 2.22944,-4.81559 -1.96191,1.24849 -4.013,1.96191 -2.05108,0.71342 -4.10217,0.71342 z"
         id="path402" /><path
         d="m 785.92789,408.7947 q 3.2104,0 5.35066,1.42685 2.22945,1.33766 3.2104,3.74546 0.98096,2.4078 0.8026,5.61819 -0.17836,3.2104 -1.6052,6.86669 -1.6052,4.19135 -3.92382,7.49092 -2.31862,3.2104 -5.1723,5.52902 -2.76451,2.31862 -5.97491,3.56711 -3.12122,1.15931 -6.50997,1.15931 -3.29958,0 -5.43984,-1.33767 -2.14027,-1.42684 -3.12122,-3.83464 -0.98095,-2.4078 -0.71342,-5.61819 0.17835,-3.29958 1.6052,-6.95586 3.38875,-8.47188 8.91777,-13.01995 5.61819,-4.63724 12.57405,-4.63724 z m -2.22944,17.74637 q 1.07013,-2.76451 1.69438,-5.26149 0.71342,-2.49697 0.89177,-4.36971 0.17836,-1.96191 -0.17835,-3.12122 -0.35671,-1.15931 -1.42685,-1.15931 -1.07013,0 -2.40779,1.15931 -1.33767,1.15931 -2.76451,3.12122 -1.33767,1.87274 -2.67533,4.36971 -1.33767,2.49698 -2.4078,5.26149 -1.07013,2.67533 -1.78355,5.1723 -0.71343,2.4078 -0.89178,4.28053 -0.0892,1.87273 0.35671,3.03204 0.44589,1.07013 1.51602,1.07013 1.07013,0 2.31862,-1.07013 1.33767,-1.15931 2.67533,-3.03204 1.33767,-1.87273 2.67533,-4.28053 1.33767,-2.49697 2.4078,-5.1723 z"
         id="path404" /><path
         d="m 826.05786,396.93407 q 3.65629,0 6.33162,1.42684 2.76451,1.33767 4.19135,4.10218 1.51602,2.67533 1.51602,6.7775 0.0892,4.10218 -1.6052,9.45284 -1.6052,5.1723 -4.01299,9.89872 -2.4078,4.72642 -5.79655,8.29353 -3.29958,3.56711 -7.66929,5.70737 -4.3697,2.05109 -9.9879,2.05109 -3.92382,0 -6.68833,-1.42685 -2.7645,-1.42684 -4.28052,-4.10217 -1.42685,-2.76451 -1.42685,-6.86668 0.0892,-4.10218 1.87273,-9.45284 1.69438,-4.99395 3.83464,-9.63119 2.22945,-4.63724 5.35067,-8.20435 3.21039,-3.65628 7.66928,-5.79655 4.45888,-2.22944 10.70132,-2.22944 z m -0.35671,23.89962 q 1.42684,-4.28053 2.4078,-7.93681 0.98095,-3.74547 1.07013,-6.50997 0.17836,-2.85369 -0.71342,-4.45889 -0.8026,-1.6052 -3.03204,-1.6052 -2.4078,0 -4.72642,1.87273 -2.31862,1.78356 -4.45888,4.72642 -2.05109,2.85369 -3.83465,6.50997 -1.78355,3.65629 -3.03204,7.31257 -1.42684,4.19136 -2.49697,7.84764 -0.98096,3.65629 -1.15931,6.4208 -0.0892,2.67533 0.8026,4.28053 0.89177,1.51602 3.21039,1.51602 2.58616,0 4.90478,-1.78356 2.40779,-1.78355 4.3697,-4.54806 2.05109,-2.85369 3.74547,-6.42079 1.69437,-3.56711 2.94286,-7.2234 z"
         id="path406"
         style="fill:#ff9955" /><path
         d="m 867.07951,397.2016 q 2.22945,0.44589 3.83465,1.78356 1.69437,1.24848 2.40779,3.12122 0.71342,1.78355 0.44589,4.10217 -0.17835,2.31862 -1.69437,4.90477 -1.6052,2.85369 -3.74547,3.83464 -2.14026,0.98096 -3.74546,0 -1.6052,-0.98095 -1.87273,-3.12121 -0.17836,-2.22945 1.07013,-4.36971 1.24849,-2.05109 3.2104,-2.85369 2.05108,-0.89178 3.65628,0.0892 0.0892,-1.51602 -1.15931,-2.76451 -1.24849,-1.24849 -3.83464,-1.69438 -3.03204,-0.44588 -5.70737,1.15931 -2.67533,1.6052 -3.83464,4.36971 -1.33767,3.03204 0.17835,5.88573 1.51602,2.85369 4.99395,5.08313 4.72642,2.85368 6.77751,6.86668 2.05109,4.013 0,9.27448 -1.15931,2.76451 -3.38875,5.17231 -2.14027,2.4078 -5.08313,4.10217 -2.94287,1.6052 -6.4208,2.31862 -3.47793,0.71342 -7.13421,0.17836 -2.76451,-0.44589 -4.72642,-1.96191 -1.87273,-1.6052 -2.85369,-3.74547 -0.89177,-2.14026 -0.8026,-4.63724 0.17836,-2.58615 1.42685,-4.90477 1.33766,-2.58615 3.47793,-4.01299 2.22944,-1.42685 4.19135,-0.35672 1.6052,0.89178 1.78355,3.12122 0.26754,2.22945 -0.98095,4.28053 -1.15931,1.96191 -3.03204,2.85369 -1.78356,0.8026 -3.38876,0.17835 -0.26753,1.69438 1.6052,3.47793 1.87273,1.69438 4.90478,2.31863 1.51602,0.35671 3.21039,0 1.78356,-0.35672 3.38876,-1.24849 1.60519,-0.89178 2.85368,-2.22945 1.33767,-1.42684 2.05109,-3.21039 1.33766,-3.56711 -0.44589,-6.06409 -1.78355,-2.49697 -6.06408,-5.43984 -2.14027,-1.42684 -3.56711,-3.47793 -1.42684,-2.05108 -2.05109,-4.45888 -0.53506,-2.4078 -0.26753,-4.90477 0.35671,-2.49698 1.78355,-4.90478 1.33767,-2.31862 3.38876,-4.10217 2.14026,-1.78355 4.63724,-2.85369 2.49697,-1.07013 5.1723,-1.33766 2.76451,-0.35671 5.35066,0.17835 z"
         id="path408"
         style="fill:#ff9955" /></g></g></svg>
